# xmcd CD database file
#
# Track frame offsets:
#	150
#	12297
#	22672
#	33245
#	46515
#	57882
#	68480
#	78767
#	92315
#	103262
#	113032
#	123245
#	133282
#	143705
#	155275
#	166252
#	175930
#	187127
#	197177
#	208972
#	220362
#	232600
#	246215
#	255912
#	267570
#	277132
#	288377
#	299610
#	309705
#	322675
#	335660
#
# Disc length: 4655 seconds
#
# Revision: 7
# Processed by: cddbd v1.5.1PL2 Copyright (c) Steve Scherf et al.
# Submitted via: CDex 1.51
#
DISCID=ba122d1f
DTITLE=Burl Ives - The Nashville Years Vol 4
DYEAR=1900
DGENRE=Country
TTITLE0=Lower Forty
TTITLE1=Four Initials On A Tree
TTITLE2=Someone Hangin' Round You All The Time
TTITLE3=Beautiful Annabel Lee
TTITLE4=Hobo Jungle
TTITLE5=Strong As A Mountain
TTITLE6=Can't You Hear Me
TTITLE7=Cherry Blossom Song
TTITLE8=What I Want (I Can Never Have)
TTITLE9=Can Angels Fly Over The Rockies?
TTITLE10=The Legend Of The T.
TTITLE11=Kentucky Turkey Buzzard
TTITLE12=The Funny Little Show
TTITLE13=Hard Luck And Misery
TTITLE14=Pearly Shells
TTITLE15=What Little Tears Are Made Of
TTITLE16=Short On Love
TTITLE17=Who Done It?
TTITLE18=Two Of The Usual
TTITLE19=Tell Me
TTITLE20=Among My Souvenirs
TTITLE21=Gater Hollow
TTITLE22=I Ain't Messing Nobody
TTITLE23=Catfish Bill
TTITLE24=Time To Bum Again
TTITLE25=Born For Trouble
TTITLE26=Unemployment Check
TTITLE27=The Atlantic Coastal Line
TTITLE28=Don't Let Love Die
TTITLE29=How Deep Is The Ocean
TTITLE30=Gater Hollow 1993
EXTD=
EXTT0=
EXTT1=
EXTT2=
EXTT3=
EXTT4=
EXTT5=
EXTT6=
EXTT7=
EXTT8=
EXTT9=
EXTT10=
EXTT11=
EXTT12=
EXTT13=
EXTT14=
EXTT15=
EXTT16=
EXTT17=
EXTT18=
EXTT19=
EXTT20=
EXTT21=
EXTT22=
EXTT23=
EXTT24=
EXTT25=
EXTT26=
EXTT27=
EXTT28=
EXTT29=
EXTT30=
PLAYORDER=
